<svg id="Group_20" data-name="Group 20" xmlns="http://www.w3.org/2000/svg" xmlns:xlink="http://www.w3.org/1999/xlink" width="228.458" height="40.26" viewBox="0 0 228.458 40.26">
  <defs>
    <clipPath id="clip-path">
      <rect id="Rectangle_4" data-name="Rectangle 4" width="228.458" height="40.26" fill="none"/>
    </clipPath>
  </defs>
  <path id="Path_1" data-name="Path 1" d="M0,1.094V5.48H8v17.2h4.756V1.094ZM16.369,5.48h4.386V1.094H16.369Z" transform="translate(0 -0.724)" fill="#fff"/>
  <path id="Path_2" data-name="Path 2" d="M70.432,1.1h4.725V9.65h8.771V1.1h4.756V22.683H83.928V14h-13.5Zm0,17.018h4.725v4.571H70.432Z" transform="translate(-46.589 -0.724)" fill="#fff"/>
  <path id="Path_3" data-name="Path 3" d="M149.9,5.326H133.473V1.1H149.9Zm0,8.586H133.473v-4.2H149.9Zm0,8.771H133.473V18.452H149.9Z" transform="translate(-88.288 -0.724)" fill="#fff"/>
  <g id="Group_2" data-name="Group 2">
    <g id="Group_1" data-name="Group 1" clip-path="url(#clip-path)">
      <path id="Path_4" data-name="Path 4" d="M218.5,1.1h8.4a12.368,12.368,0,0,1,5.991,1.452,10.134,10.134,0,0,1,4.015,3.8,10.829,10.829,0,0,1,1.482,5.5V11.9a11,11,0,0,1-1.482,5.5,10.207,10.207,0,0,1-4.015,3.829,12.368,12.368,0,0,1-5.991,1.452h-8.4Zm8.4,17.3a6.528,6.528,0,0,0,4.725-1.791,6.307,6.307,0,0,0,1.792-4.633V11.9a6.506,6.506,0,0,0-1.792-4.694A6.548,6.548,0,0,0,226.9,5.388h-3.675v13Z" transform="translate(-144.533 -0.724)" fill="#fff"/>
      <path id="Path_5" data-name="Path 5" d="M286.379,13.078V1.1H291.1V13.078a5.807,5.807,0,0,0,1.266,3.984,4.331,4.331,0,0,0,3.4,1.328,4.492,4.492,0,0,0,3.428-1.3,5.943,5.943,0,0,0,1.236-4.015V1.1h4.756V13.078c0,6.022-3.707,9.945-9.482,9.945s-9.327-3.8-9.327-9.945" transform="translate(-189.431 -0.724)" fill="#fff"/>
      <path id="Path_6" data-name="Path 6" d="M351.064,1.1h4.664V22.683h-4.664Zm14.485,13.281V1.1h4.694V22.684H366.2l-5.714-7.505V7.519Z" transform="translate(-232.218 -0.724)" fill="#fff"/>
      <path id="Path_7" data-name="Path 7" d="M422.248,20.878a10.058,10.058,0,0,1-3.953-3.922,11.306,11.306,0,0,1-1.452-5.714v-.062a10.844,10.844,0,0,1,1.482-5.621,10.578,10.578,0,0,1,3.984-4.015A11.424,11.424,0,0,1,428.147,0,13.874,13.874,0,0,1,433,.772a11.957,11.957,0,0,1,3.645,2.193l-2.9,3.49a7.9,7.9,0,0,0-5.745-2.069,5.741,5.741,0,0,0-4.386,1.977,7.1,7.1,0,0,0-1.822,4.756v.062a6.869,6.869,0,0,0,1.853,4.88,6.255,6.255,0,0,0,4.695,1.946,8.964,8.964,0,0,0,2.44-.309,6.937,6.937,0,0,0,2.038-.989V13.62h-2.9V9.543h7.505V18.9a13.44,13.44,0,0,1-3.984,2.409,13.821,13.821,0,0,1-5.25,1.019,12.208,12.208,0,0,1-5.93-1.452" transform="translate(-275.729)" fill="#fff"/>
      <path id="Path_8" data-name="Path 8" d="M503.158,5.326H486.727V1.1h16.431Zm0,8.586H486.727v-4.2h16.431Zm0,8.771H486.727V18.452h16.431Z" transform="translate(-321.955 -0.724)" fill="#fff"/>
      <path id="Path_9" data-name="Path 9" d="M560.692,7.752a6.51,6.51,0,0,0-2.224-2.44,6.177,6.177,0,0,0-7.783,1.05A6.208,6.208,0,0,0,549.3,8.8h-4.911a11.322,11.322,0,0,1,1.2-3.243,10.639,10.639,0,0,1,3.922-4.015A11.088,11.088,0,0,1,555.257,0a11.26,11.26,0,0,1,5.714,1.513A10.944,10.944,0,0,1,564.862,5.5a12.091,12.091,0,0,1,1.2,3.3h-4.941a10.769,10.769,0,0,0-.433-1.05m-.927,8.215a7.066,7.066,0,0,0,1.39-2.44h4.88a10.19,10.19,0,0,1-1.2,3.274,11.015,11.015,0,0,1-3.891,4.015,11.374,11.374,0,0,1-5.745,1.513,11.174,11.174,0,0,1-5.714-1.513,10.475,10.475,0,0,1-3.891-3.984,10.364,10.364,0,0,1-1.2-3.3h4.942a4.442,4.442,0,0,0,.432,1.05,6.27,6.27,0,0,0,2.224,2.44,5.809,5.809,0,0,0,3.274.927,5.965,5.965,0,0,0,4.509-1.977" transform="translate(-360.095)" fill="#fff"/>
      <path id="Path_10" data-name="Path 10" d="M617.555,1.1h4.664V22.683h-4.664ZM632.04,14.376V1.1h4.694V22.684h-4.046l-5.714-7.505V7.519Z" transform="translate(-408.494 -0.724)" fill="#fff"/>
      <path id="Path_11" data-name="Path 11" d="M223.619,89.841a3.1,3.1,0,0,1,1.442.344,3.047,3.047,0,0,1,1.1.948,2.716,2.716,0,0,1,.5,1.335,2.851,2.851,0,0,1-.754,2.253,2.792,2.792,0,0,1-2.16.962h-2.784a.172.172,0,0,0-.172.172l-.015,3.8H218.94l.015-4.88V89.841Zm1.192,3.1a1.074,1.074,0,0,0-1.062-1.263h-2.784a.157.157,0,0,0-.122.057.192.192,0,0,0-.05.129v1.794a.172.172,0,0,0,.172.172h2.741a1.141,1.141,0,0,0,.732-.251.974.974,0,0,0,.373-.639" transform="translate(-144.822 -59.427)" fill="#4e4e4e"/>
      <path id="Path_12" data-name="Path 12" d="M251.183,89.756a4.945,4.945,0,1,1-4.938,4.937,4.773,4.773,0,0,1,.395-1.916,4.9,4.9,0,0,1,2.627-2.627,4.773,4.773,0,0,1,1.916-.395m-2.189,7.126a3.085,3.085,0,1,0-.911-2.189,2.984,2.984,0,0,0,.911,2.189" transform="translate(-162.884 -59.371)" fill="#4e4e4e"/>
      <path id="Path_13" data-name="Path 13" d="M288.656,89.926h1.88l-1.923,9.76h-2l-1.45-5.067-.115-.028h-.1l-.043.115-1.436,4.98h-1.98l-1.924-9.76h1.881l1.091,5.526.115.014h.1l.043-.1,1.564-5.44h1.364l1.593,5.526.115.014h.1l.058-.115Z" transform="translate(-184.927 -59.483)" fill="#4e4e4e"/>
      <path id="Path_14" data-name="Path 14" d="M319.71,91.678a.186.186,0,0,0-.136.05.167.167,0,0,0-.05.122v1.823a.156.156,0,0,0,.029.086.206.206,0,0,0,.065.064.176.176,0,0,0,.093.022h3.057V95.7H319.71a.184.184,0,0,0-.136.05.166.166,0,0,0-.05.122v1.766a.191.191,0,0,0,.05.129.172.172,0,0,0,.136.057H323.5v1.838h-5.813V89.841H323.5v1.837Z" transform="translate(-210.14 -59.427)" fill="#4e4e4e"/>
      <path id="Path_15" data-name="Path 15" d="M346.41,95.668l3.287,3.99h-2.411l-3.258-3.99h-.747l-.015,3.99h-1.837l.015-3.861V89.841h4.694a3,3,0,0,1,1.988.718,2.908,2.908,0,0,1-1.5,5.1Zm-3.129-3.99v2.153h2.957a1.063,1.063,0,0,0,.832-.373,1.084,1.084,0,0,0,.244-.875,1.066,1.066,0,0,0-.388-.646,1.142,1.142,0,0,0-.746-.258Z" transform="translate(-225.845 -59.427)" fill="#4e4e4e"/>
      <path id="Path_16" data-name="Path 16" d="M378.8,94.549a3.04,3.04,0,0,1,.8,1.026,2.988,2.988,0,0,1,.3,1.241,2.6,2.6,0,0,1-.789,1.952,2.853,2.853,0,0,1-2.11.89h-5.512V89.841h4.478a3.289,3.289,0,0,1,1.923.589,3.057,3.057,0,0,1,1.177,1.55,2.72,2.72,0,0,1-.3,2.411l-.058.086Zm-5.469-2.7v1.794a.173.173,0,0,0,.186.187h2.928a.893.893,0,0,0,.625-.244.877.877,0,0,0,.294-.589,1.126,1.126,0,0,0-.309-.926,1.176,1.176,0,0,0-.9-.395h-2.641a.184.184,0,0,0-.136.05.165.165,0,0,0-.05.122m3.8,5.971a.936.936,0,0,0,.632-.237.841.841,0,0,0,.3-.582,1.2,1.2,0,0,0-.316-.94,1.17,1.17,0,0,0-.9-.395h-3.33a.221.221,0,0,0-.057.007.105.105,0,0,0-.05.028l-.043.043a.112.112,0,0,0-.028.043.154.154,0,0,0-.007.05v1.808a.165.165,0,0,0,.05.122.184.184,0,0,0,.136.05Z" transform="translate(-245.731 -59.427)" fill="#4e4e4e"/>
      <path id="Path_17" data-name="Path 17" d="M408.158,89.841H410v6.516a3.308,3.308,0,0,1-3.287,3.3h-1.134a3.309,3.309,0,0,1-3.3-3.3V89.841h1.838v6.516a1.47,1.47,0,0,0,1.464,1.464h1.134a1.4,1.4,0,0,0,1.019-.431,1.41,1.41,0,0,0,.43-1.034Z" transform="translate(-266.092 -59.427)" fill="#4e4e4e"/>
      <rect id="Rectangle_2" data-name="Rectangle 2" width="1.837" height="9.732" transform="translate(146.343 30.457)" fill="#4e4e4e"/>
      <path id="Path_18" data-name="Path 18" d="M447.289,97.822h3.789v1.837h-5.813V89.841H447.1v7.808a.165.165,0,0,0,.05.122.183.183,0,0,0,.136.05" transform="translate(-294.53 -59.427)" fill="#4e4e4e"/>
      <path id="Path_19" data-name="Path 19" d="M474.222,91.363a4.779,4.779,0,0,1,1.041,1.7,4.89,4.89,0,0,1,.265,1.988,4.67,4.67,0,0,1-1.6,3.265,5.022,5.022,0,0,1-3.48,1.328h-2.627V89.8h2.8a5,5,0,0,1,1.328.18,4.736,4.736,0,0,1,1.227.531,5.083,5.083,0,0,1,1.047.854m-.531,3.66a3.1,3.1,0,0,0-3.071-3.387h-.775a.189.189,0,0,0-.129.05.172.172,0,0,0-.058.136v5.8a.173.173,0,0,0,.187.187h.646a3.27,3.27,0,0,0,1.17-.215,3.142,3.142,0,0,0,1.694-1.478,2.867,2.867,0,0,0,.337-1.091" transform="translate(-309.45 -59.399)" fill="#4e4e4e"/>
      <rect id="Rectangle_3" data-name="Rectangle 3" width="1.837" height="9.732" transform="translate(168.188 30.457)" fill="#4e4e4e"/>
      <path id="Path_20" data-name="Path 20" d="M515.637,89.926h1.837v9.746h-2.067L511.834,93.6l-.086-.014h-.129l-.029.144v5.956h-1.837v-9.76h2.1l3.545,6.086.1.015h.115l.029-.144Z" transform="translate(-337.186 -59.483)" fill="#4e4e4e"/>
      <path id="Path_21" data-name="Path 21" d="M548.6,94.134c.019.2.029.388.029.56a5.152,5.152,0,0,1-.187,1.378,4.99,4.99,0,0,1-4.751,3.56,4.588,4.588,0,0,1-.5-.029,4.725,4.725,0,0,1-3.093-1.55,4.8,4.8,0,0,1-1.342-3.215,4.749,4.749,0,0,1,1.392-3.574,4.834,4.834,0,0,1,1.622-1.12,4.9,4.9,0,0,1,1.924-.388,4.837,4.837,0,0,1,1.313.179,4.953,4.953,0,0,1,1.213.524,5.145,5.145,0,0,1,1.048.832l-1.579,1.034a3.024,3.024,0,0,0-1.995-.732,3.1,3.1,0,0,0-3.014,2.39,3.148,3.148,0,0,0-.014,1.371A2.992,2.992,0,0,0,541.5,96.9a2.958,2.958,0,0,0,1.536.825,3.066,3.066,0,0,0,2.985-1,2.9,2.9,0,0,0,.4-.56l.086-.172h-2.2V94.134Z" transform="translate(-356.365 -59.371)" fill="#4e4e4e"/>
      <path id="Path_22" data-name="Path 22" d="M598.879,94.134c.019.2.029.388.029.56a5.15,5.15,0,0,1-.187,1.378,4.989,4.989,0,0,1-4.751,3.56,4.587,4.587,0,0,1-.5-.029,4.724,4.724,0,0,1-3.093-1.55,4.8,4.8,0,0,1-1.342-3.215,4.749,4.749,0,0,1,1.392-3.574,4.834,4.834,0,0,1,1.622-1.12,4.9,4.9,0,0,1,1.923-.388,4.838,4.838,0,0,1,1.313.179,4.952,4.952,0,0,1,1.213.524,5.145,5.145,0,0,1,1.048.832l-1.579,1.034a3.024,3.024,0,0,0-1.995-.732,3.1,3.1,0,0,0-3.014,2.39,3.146,3.146,0,0,0-.014,1.371,2.992,2.992,0,0,0,.847,1.543,2.957,2.957,0,0,0,1.536.825,3.067,3.067,0,0,0,2.985-1,2.9,2.9,0,0,0,.4-.56l.086-.172h-2.2V94.134Z" transform="translate(-389.626 -59.371)" fill="#4e4e4e"/>
      <path id="Path_23" data-name="Path 23" d="M625.059,89.841l2.11.029-3.258,5.512V99.63h-1.837V95.353l-.029-.057-3.2-5.426h2.167l1.895,3.287.1.014h.071l.058-.086Z" transform="translate(-409.347 -59.427)" fill="#4e4e4e"/>
      <path id="Path_24" data-name="Path 24" d="M655.372,89.926h1.952v9.76h-1.838V95.294l-.143-.029h-.086l-.057.086-1.823,4.32H652.3l-1.852-4.407-.1-.014h-.129l-.029.144v4.277h-1.837V89.926h1.966l2.411,6.115.115.014h.072l.057-.086Z" transform="translate(-428.867 -59.483)" fill="#4e4e4e"/>
    </g>
  </g>
</svg>
