<svg xmlns="http://www.w3.org/2000/svg" width="22.706" height="22.706" viewBox="0 0 22.706 22.706">
  <g id="Group_74354" data-name="Group 74354" transform="translate(-1684.046 -50.163)">
    <path id="Path_25" data-name="Path 25" d="M44.41,4.054a1.331,1.331,0,1,0,1.331,1.331A1.331,1.331,0,0,0,44.41,4.054" transform="translate(1657 50.163)" fill="#fff"/>
    <path id="Path_26" data-name="Path 26" d="M38.492,5.761a5.592,5.592,0,1,0,5.592,5.592,5.6,5.6,0,0,0-5.592-5.592m0,9.174a3.582,3.582,0,1,1,3.582-3.582,3.586,3.586,0,0,1-3.582,3.582" transform="translate(1657 50.163)" fill="#fff"/>
    <path id="Path_27" data-name="Path 27" d="M42.932,22.706H33.866a6.827,6.827,0,0,1-6.82-6.82V6.82A6.827,6.827,0,0,1,33.866,0h9.066a6.828,6.828,0,0,1,6.82,6.82v9.066a6.828,6.828,0,0,1-6.82,6.82M33.866,2.136A4.689,4.689,0,0,0,29.182,6.82v9.066a4.689,4.689,0,0,0,4.684,4.684h9.066a4.689,4.689,0,0,0,4.684-4.684V6.82a4.689,4.689,0,0,0-4.684-4.684Z" transform="translate(1657 50.163)" fill="#fff"/>
  </g>
</svg>
