<svg xmlns="http://www.w3.org/2000/svg" width="21.938" height="18.057" viewBox="0 0 21.938 18.057">
  <path id="Path_29" data-name="Path 29" d="M125.2,5.829a9.052,9.052,0,0,1-2.219.632c.357-.06.881-.706,1.091-.967a4.035,4.035,0,0,0,.736-1.343c.02-.038.034-.086,0-.115a.128.128,0,0,0-.118.01,11.35,11.35,0,0,1-2.631,1.007A.174.174,0,0,1,121.876,5a2.335,2.335,0,0,0-.23-.235,4.683,4.683,0,0,0-1.274-.781,4.445,4.445,0,0,0-1.955-.314,4.685,4.685,0,0,0-1.854.523,4.8,4.8,0,0,0-1.5,1.222,4.611,4.611,0,0,0-.893,1.789,4.863,4.863,0,0,0-.047,1.889c.014.106.005.12-.091.106A14.05,14.05,0,0,1,105,4.6c-.106-.12-.163-.12-.25.009a4.585,4.585,0,0,0,.781,5.416c.178.168.36.335.556.488a4.609,4.609,0,0,1-1.744-.488c-.106-.067-.159-.029-.168.091a2.715,2.715,0,0,0,.029.518,4.636,4.636,0,0,0,2.856,3.7,2.778,2.778,0,0,0,.58.177,5.2,5.2,0,0,1-1.711.053c-.124-.024-.172.038-.124.158a4.812,4.812,0,0,0,3.594,3.01c.163.028.325.028.489.066-.01.015-.02.015-.029.029a5.692,5.692,0,0,1-2.455,1.3,8.766,8.766,0,0,1-3.727.477c-.2-.029-.243-.027-.3,0s-.007.082.057.134c.254.168.513.317.777.46a12.24,12.24,0,0,0,2.491,1,13.273,13.273,0,0,0,12.886-3.013c2.64-2.623,3.566-6.242,3.566-9.864,0-.142.167-.22.267-.3A8.722,8.722,0,0,0,125.176,6.2a.553.553,0,0,0,.116-.349V5.829c0-.058,0-.041-.09,0" transform="translate(-103.354 -3.665)" fill="#fff"/>
</svg>
