<svg xmlns="http://www.w3.org/2000/svg" width="72.02" height="49.289" viewBox="0 0 72.02 49.289">
  <path id="Path_4" data-name="Path 4" d="M114.186-916.047a9.549,9.549,0,0,1,3.665,1.274c.392.218.583.132.8-.208a18.986,18.986,0,0,1,2.878-3.718,18.592,18.592,0,0,1,6.093-3.935,19.006,19.006,0,0,1,4.128-1.122c.492-.066,1.032.234,1.481-.186l2.734-.024c.024.255.224.224.389.225.325,0,.651-.01.977-.016a17.419,17.419,0,0,1,6.421,2.183,18.077,18.077,0,0,1,5.605,4.985,18.354,18.354,0,0,1,2.142,3.724,17.5,17.5,0,0,1,1.081,3.8c.162.943.185,1.888.271,2.831a7.919,7.919,0,0,1-.085,1.739.649.649,0,0,0,.1.516.649.649,0,0,0,.452.269,13.5,13.5,0,0,1,6.9,4.666,14.109,14.109,0,0,1,2.416,4.336,15.171,15.171,0,0,1,.873,5.969,16.61,16.61,0,0,1-.98,4.8,14.653,14.653,0,0,1-3.326,5.111,15.127,15.127,0,0,1-3.054,2.323,15.822,15.822,0,0,1-3.884,1.529,8.751,8.751,0,0,1-2.465.294q-5.724-.015-11.448,0c-.368,0-.561-.049-.559-.5q.029-7.235.024-14.471H144.3c.156,0,.312,0,.467-.007.118-.006.236-.022.264-.174s-.024-.264-.2-.282c-1.32-1.376-2.63-2.768-3.971-4.127-2.8-2.838-5.505-5.772-8.312-8.607-1.15-1.162-2.255-2.376-3.381-3.564-.314-.33-.547-.354-.858-.011-2.136,2.368-4.47,4.549-6.621,6.9-1.257,1.375-2.6,2.661-3.883,4.009q-2.674,2.815-5.341,5.638c-.051.441.29.213.427.214,2.231.021,4.462.022,6.693.028q.005,7.237.016,14.473c0,.343-.092.48-.462.479-4.907-.014-9.814.024-14.719-.048a11.081,11.081,0,0,1-3.533-.8,13.618,13.618,0,0,1-5.463-3.639,14.682,14.682,0,0,1-2.973-4.679,16.789,16.789,0,0,1-.938-3.728q0-1.956,0-3.913a13.808,13.808,0,0,1,.944-3.718,14.264,14.264,0,0,1,3.79-5.49,13.9,13.9,0,0,1,5.167-3c.533-.164,1.092-.2,1.612-.42.223-.093.283-.149.239-.409a13,13,0,0,1-.323-3.44,8.58,8.58,0,0,1,2.909-5.7,10.3,10.3,0,0,1,4.805-2.344,3.374,3.374,0,0,1,.521-.039Z" transform="translate(-91.517 923.967)" fill="#858e95" opacity="0.51"/>
</svg>

