<svg xmlns="http://www.w3.org/2000/svg" width="22.651" height="22.707" viewBox="0 0 22.651 22.707">
  <g id="Group_74353" data-name="Group 74353" transform="translate(-1721.636 -50.163)">
    <path id="Path_30" data-name="Path 30" d="M64.636,22.707l1.628-6.074a11.241,11.241,0,1,1,4.477,4.438ZM71.045,18.8l.384.229a9.126,9.126,0,1,0-3.122-3.094l.236.388-.908,3.391Z" transform="translate(1657 50.163)" fill="#fff"/>
    <path id="Path_31" data-name="Path 31" d="M80.245,12.775a1.887,1.887,0,0,0-1.606-.362c-.417.171-.684.824-.954,1.157a.4.4,0,0,1-.517.112,7.273,7.273,0,0,1-3.631-3.109.445.445,0,0,1,.057-.608,2.456,2.456,0,0,0,.659-1.071,2.331,2.331,0,0,0-.295-1.267,3,3,0,0,0-.935-1.41,1.282,1.282,0,0,0-1.393.207,2.826,2.826,0,0,0-.979,2.239,3.129,3.129,0,0,0,.088.71,5.906,5.906,0,0,0,.681,1.571,12.38,12.38,0,0,0,.712,1.082,10.994,10.994,0,0,0,3.086,2.866,9.356,9.356,0,0,0,1.925.915,4.266,4.266,0,0,0,2.241.354,2.708,2.708,0,0,0,2.031-1.511,1.306,1.306,0,0,0,.1-.771c-.116-.531-.835-.847-1.265-1.1" transform="translate(1657 50.163)" fill="#fff" fill-rule="evenodd"/>
  </g>
</svg>
